# Blender v3.2.0 OBJ File: ''
# www.blender.org
mtllib Polyhedron_2.mtl
o polyhedrons_ts.001_polyhedrons_ts.006
v 0.245564 0.808421 0.501538
v 0.251678 0.724600 0.581256
v 0.331720 0.724600 0.691422
v 0.405645 0.808421 0.721872
v 0.309597 0.608764 0.759509
v 0.361400 0.576747 0.858046
v 0.215882 0.537173 0.691422
v 0.173973 0.433567 0.721872
v 0.180086 0.608764 0.581256
v 0.102381 0.576747 0.501538
v 0.483352 0.724600 0.740691
v 0.612860 0.724600 0.698610
v 0.664663 0.808421 0.637712
v 0.670779 0.608764 0.740691
v 0.780499 0.576747 0.721872
v 0.577064 0.537173 0.808777
v 0.593072 0.433567 0.858046
v 0.461228 0.608764 0.808777
v 0.441440 0.808421 0.611705
v 0.361400 0.808421 0.501538
v 0.570950 0.808421 0.569624
v 0.664663 0.808421 0.365364
v 0.570950 0.808421 0.433452
v 0.405645 0.808421 0.281204
v 0.441440 0.808421 0.391371
v 0.706574 0.724600 0.569624
v 0.706574 0.724600 0.433452
v 0.764492 0.608764 0.391371
v 0.780499 0.576747 0.281204
v 0.800287 0.537173 0.501538
v 0.852090 0.433567 0.501538
v 0.764492 0.608764 0.611705
v 0.774385 0.401549 0.421820
v 0.738590 0.473140 0.311653
v 0.708910 0.201893 0.501538
v 0.702794 0.285713 0.421820
v 0.548827 0.201893 0.281204
v 0.622754 0.285713 0.311653
v 0.593072 0.433567 0.145030
v 0.644877 0.401549 0.243565
v 0.644877 0.401549 0.759509
v 0.738590 0.473140 0.691422
v 0.548827 0.201893 0.721872
v 0.622754 0.285713 0.691422
v 0.702794 0.285713 0.581256
v 0.774385 0.401549 0.581256
v 0.612860 0.724600 0.304466
v 0.483352 0.724600 0.262385
v 0.461228 0.608764 0.194298
v 0.361400 0.576747 0.145030
v 0.577064 0.537173 0.194298
v 0.670779 0.608764 0.262385
v 0.331720 0.724600 0.311653
v 0.251678 0.724600 0.421820
v 0.180086 0.608764 0.421820
v 0.215882 0.537173 0.311653
v 0.173973 0.433567 0.281204
v 0.309597 0.608764 0.243567
v 0.283695 0.401549 0.262385
v 0.341612 0.285713 0.304465
v 0.289809 0.201893 0.365364
v 0.377408 0.473140 0.194298
v 0.493244 0.401549 0.194298
v 0.471122 0.285713 0.262385
v 0.154185 0.473140 0.501538
v 0.189980 0.401549 0.611705
v 0.189980 0.401549 0.391371
v 0.247899 0.285713 0.433450
v 0.289809 0.201893 0.637712
v 0.247899 0.285713 0.569624
v 0.283695 0.401549 0.740691
v 0.377408 0.473140 0.808777
v 0.341612 0.285713 0.698610
v 0.471122 0.285713 0.740691
v 0.493244 0.401549 0.808777
v 0.383523 0.201893 0.433450
v 0.383523 0.201893 0.569624
v 0.513032 0.201893 0.391371
v 0.593072 0.201893 0.501538
v 0.513032 0.201893 0.611705
v 0.361400 0.656789 0.501538
v 0.441440 0.656789 0.611705
v 0.419319 0.540952 0.679791
v 0.325604 0.469360 0.611705
v 0.289809 0.540952 0.501538
v 0.570950 0.656789 0.569624
v 0.628868 0.540952 0.611705
v 0.535155 0.469360 0.679791
v 0.570950 0.656789 0.433452
v 0.628868 0.540952 0.391371
v 0.664663 0.469361 0.501538
v 0.441440 0.656789 0.391371
v 0.419319 0.540952 0.323285
v 0.535155 0.469361 0.323285
v 0.325604 0.469361 0.391371
v 0.383523 0.353524 0.433450
v 0.383523 0.353524 0.569624
v 0.513032 0.353524 0.391371
v 0.593072 0.353524 0.501538
v 0.513032 0.353524 0.611705
vt 0.000000 0.792348
vt 0.054068 0.736277
vt 0.145932 0.736277
vt 0.200000 0.792348
vt 0.158285 0.603398
vt 0.200000 0.560068
vt 0.100000 0.531444
vt 0.100000 0.439932
vt 0.041715 0.603398
vt 0.000000 0.560068
vt 0.254068 0.736277
vt 0.345932 0.736277
vt 0.400000 0.792348
vt 0.358285 0.603398
vt 0.400000 0.560068
vt 0.300000 0.531444
vt 0.300000 0.439932
vt 0.241715 0.603398
vt 0.200000 0.883860
vt 0.000000 0.883860
vt 0.400000 0.883860
vt 0.600000 0.792348
vt 0.600000 0.883860
vt 0.800000 0.792348
vt 0.800000 0.883860
vt 0.454068 0.736277
vt 0.545932 0.736277
vt 0.558285 0.603398
vt 0.600000 0.560068
vt 0.500000 0.531444
vt 0.500000 0.439932
vt 0.441715 0.603398
vt 0.541715 0.396602
vt 0.600000 0.468556
vt 0.500000 0.207652
vt 0.554068 0.263723
vt 0.700000 0.207652
vt 0.645932 0.263723
vt 0.700000 0.439932
vt 0.658285 0.396602
vt 0.341715 0.396602
vt 0.400000 0.468556
vt 0.300000 0.207652
vt 0.354068 0.263723
vt 0.445932 0.263723
vt 0.458285 0.396602
vt 0.654068 0.736277
vt 0.745932 0.736277
vt 0.758285 0.603398
vt 0.800000 0.560068
vt 0.700000 0.531444
vt 0.641715 0.603398
vt 0.854068 0.736277
vt 0.945932 0.736277
vt 0.958285 0.603398
vt 0.900000 0.531444
vt 0.900000 0.439932
vt 0.841715 0.603398
vt 0.858285 0.396602
vt 0.845932 0.263723
vt 0.900000 0.207652
vt 0.800000 0.468556
vt 0.741715 0.396602
vt 0.754068 0.263723
vt 0.000000 0.468556
vt 0.058285 0.396602
vt 0.941715 0.396602
vt 0.954068 0.263723
vt 0.100000 0.207652
vt 0.045932 0.263723
vt 0.141715 0.396602
vt 0.200000 0.468556
vt 0.154068 0.263723
vt 0.245932 0.263723
vt 0.258285 0.396602
vt 0.900000 0.116140
vt 0.100000 0.116140
vt 0.700000 0.116140
vt 0.500000 0.116140
vt 0.300000 0.116140
vt 0.000000 0.792348
vt 0.200000 0.792348
vt 0.200000 0.560068
vt 0.100000 0.439932
vt 0.000000 0.560068
vt 0.400000 0.792348
vt 0.400000 0.560068
vt 0.300000 0.439932
vt 0.600000 0.792348
vt 0.600000 0.560068
vt 0.500000 0.439932
vt 0.800000 0.792348
vt 0.800000 0.560068
vt 0.700000 0.439932
vt 0.900000 0.439932
vt 0.900000 0.207652
vt 0.100000 0.207652
vt 0.700000 0.207652
vt 0.500000 0.207652
vt 0.300000 0.207652
vn -0.7236 0.4472 0.5257
vn -0.6593 0.6042 0.4474
vn -0.6832 0.5966 0.4210
vn -0.6258 0.3911 0.6748
vn -0.5831 0.5399 0.6070
vn -0.7761 0.2730 0.5684
vn -0.6597 0.3443 0.6680
vn -0.8364 0.3849 0.3904
vn -0.8071 0.2801 0.5197
vn -0.7233 0.5721 0.3867
vn -0.8365 0.3240 0.4420
vn 0.2764 0.4472 0.8507
vn 0.2218 0.6042 0.7653
vn 0.1893 0.5966 0.7799
vn 0.2764 0.4472 0.8506
vn 0.4484 0.3911 0.8037
vn 0.3971 0.5399 0.7422
vn 0.3008 0.2730 0.9138
vn 0.4315 0.3443 0.8338
vn 0.1128 0.3849 0.9160
vn 0.2448 0.2801 0.9282
vn 0.1442 0.5721 0.8074
vn 0.1619 0.3240 0.9321
vn 0.0000 1.0000 0.0000
vn -0.1341 0.9825 0.1290
vn -0.1064 0.9825 0.1527
vn 0.0813 0.9825 0.1674
vn 0.1832 0.9825 0.0326
vn 0.1843 0.9825 -0.0256
vn 0.0877 0.9825 -0.1641
vn 0.0326 0.9825 -0.1832
vn -0.1290 0.9825 -0.1341
vn -0.0610 0.9825 -0.1758
vn -0.1674 0.9825 0.0813
vn 0.8944 0.4472 0.0000
vn 0.7964 0.6042 0.0256
vn 0.8002 0.5966 0.0610
vn 0.9030 0.3911 -0.1781
vn 0.8286 0.5399 -0.1483
vn 0.9620 0.2730 -0.0037
vn 0.9264 0.3443 -0.1527
vn 0.9061 0.3849 0.1758
vn 0.9584 0.2801 0.0540
vn 0.8125 0.5721 0.1123
vn 0.9365 0.3240 0.1341
vn 0.7236 -0.4472 -0.5257
vn 0.8353 -0.3195 -0.4474
vn 0.8392 -0.3443 -0.4210
vn 0.7800 -0.5121 -0.3598
vn 0.6639 -0.6032 -0.4420
vn 0.6293 -0.6042 -0.4888
vn 0.5828 -0.5178 -0.6263
vn 0.5915 -0.4686 -0.6562
vn 0.6788 -0.3240 -0.6589
vn 0.6297 -0.3849 -0.6748
vn 0.8193 -0.2897 -0.4948
vn 0.7236 -0.4472 0.5257
vn 0.6837 -0.3195 0.6562
vn 0.6597 -0.3443 0.6680
vn 0.5832 -0.5121 0.6306
vn 0.6255 -0.6032 0.4948
vn 0.6593 -0.6042 0.4474
vn 0.7757 -0.5178 0.3607
vn 0.8068 -0.4686 0.3598
vn 0.8365 -0.3240 0.4420
vn 0.8364 -0.3849 0.3904
vn 0.7238 -0.2897 0.6263
vn 0.2764 0.4472 -0.8507
vn 0.2704 0.6042 -0.7495
vn 0.3053 0.5966 -0.7422
vn 0.1097 0.3911 -0.9138
vn 0.1150 0.5399 -0.8339
vn 0.2764 0.4472 -0.8506
vn 0.2938 0.2730 -0.9161
vn 0.1411 0.3443 -0.9282
vn 0.4472 0.3849 -0.8074
vn 0.3475 0.2801 -0.8948
vn 0.3579 0.5721 -0.7380
vn 0.4169 0.3240 -0.8492
vn -0.7236 0.4472 -0.5257
vn -0.6293 0.6042 -0.4888
vn -0.6115 0.5966 -0.5197
vn -0.8352 0.3911 -0.3867
vn -0.7575 0.5399 -0.3670
vn -0.7804 0.2730 -0.5625
vn -0.8392 0.3443 -0.4210
vn -0.6297 0.3849 -0.6748
vn -0.7437 0.2801 -0.6070
vn -0.5913 0.5721 -0.5684
vn -0.6788 0.3240 -0.6589
vn -0.2764 -0.4472 -0.8507
vn -0.4413 -0.4686 -0.7653
vn -0.4490 -0.4361 -0.7799
vn -0.3776 -0.2926 -0.8785
vn -0.2174 -0.2897 -0.9321
vn -0.1674 -0.3195 -0.9327
vn -0.0928 -0.4623 -0.8819
vn -0.1011 -0.5121 -0.8530
vn -0.2152 -0.6032 -0.7680
vn -0.1493 -0.5759 -0.8037
vn -0.4155 -0.5178 -0.7478
vn -0.8944 -0.4472 0.0000
vn -0.9522 -0.2926 0.0877
vn -0.9584 -0.2801 0.0540
vn -0.9388 -0.3195 -0.1290
vn -0.8674 -0.4623 -0.1843
vn -0.8425 -0.5121 -0.1674
vn -0.7969 -0.6032 -0.0326
vn -0.7964 -0.6042 0.0256
vn -0.8396 -0.5178 0.1641
vn -0.8125 -0.5721 0.1123
vn -0.9365 -0.3240 0.1341
vn -0.2764 -0.4472 0.8507
vn -0.4128 -0.3195 0.8530
vn -0.4314 -0.3443 0.8339
vn -0.4195 -0.5121 0.7495
vn -0.2773 -0.6032 0.7478
vn -0.2218 -0.6042 0.7653
vn -0.1034 -0.5178 0.8492
vn -0.0928 -0.4686 0.8785
vn -0.1619 -0.3240 0.9321
vn -0.1129 -0.3849 0.9160
vn -0.3720 -0.2897 0.8819
vn 0.0000 -1.0000 -0.0000
vn -0.1843 -0.9825 -0.0256
vn -0.1758 -0.9825 -0.0610
vn -0.0326 -0.9825 -0.1832
vn 0.1290 -0.9825 -0.1341
vn 0.1641 -0.9825 -0.0877
vn 0.1674 -0.9825 0.0813
vn 0.1341 -0.9825 0.1290
vn -0.0256 -0.9825 0.1843
vn 0.0540 -0.9825 0.1781
vn -0.1832 -0.9825 0.0326
vn -0.2066 -0.9074 0.3661
vn -0.3618 -0.8944 0.2629
vn -0.3546 -0.9316 0.0799
vn -0.5742 -0.4363 -0.6928
vn -0.6708 -0.2764 -0.6882
vn -0.5503 -0.2020 -0.8101
vn -0.0290 0.5846 -0.8108
vn -0.0528 0.7236 -0.6882
vn 0.1325 0.7338 -0.6663
vn 0.7001 0.7087 0.0872
vn 0.6382 0.7236 0.2629
vn 0.7503 0.5826 0.3126
vn 0.6055 -0.2355 0.7602
vn 0.4472 -0.2764 0.8507
vn 0.5323 -0.4040 0.7439
vn 0.2843 -0.9074 0.3096
vn 0.1382 -0.8944 0.4253
vn -0.0336 -0.9316 0.3619
vn -0.8363 -0.4363 0.3320
vn -0.8618 -0.2764 0.4253
vn -0.9406 -0.2020 0.2730
vn -0.7801 0.5846 -0.2229
vn -0.6708 0.7236 -0.1625
vn -0.5928 0.7338 -0.3320
vn 0.2992 0.7087 -0.6389
vn 0.4472 0.7236 -0.5257
vn 0.5291 0.5826 -0.6170
vn 0.9101 -0.2355 -0.3410
vn 0.9472 -0.2764 -0.1625
vn 0.8720 -0.4040 -0.2763
vn 0.3823 -0.9074 -0.1748
vn 0.4472 -0.8944 -0.0000
vn 0.3338 -0.9316 0.1438
vn 0.0574 -0.4363 0.8980
vn 0.1382 -0.2764 0.9511
vn -0.0310 -0.2020 0.9789
vn -0.4531 0.5846 0.6730
vn -0.3618 0.7236 0.5878
vn -0.4989 0.7338 0.4612
vn -0.5151 0.7087 -0.4820
vn -0.3618 0.7236 -0.5878
vn -0.4233 0.5826 -0.6939
vn -0.0431 -0.2355 -0.9709
vn 0.1382 -0.2764 -0.9511
vn 0.0066 -0.4040 -0.9147
vn 0.6922 -0.0639 -0.7189
vn 0.8090 0.0000 -0.5878
vn 0.8794 -0.1181 -0.4612
vn -0.4698 -0.0639 -0.8804
vn -0.3090 0.0000 -0.9511
vn -0.2429 -0.1748 -0.9542
vn -0.9825 -0.0639 0.1748
vn -1.0000 0.0000 0.0000
vn -0.9825 -0.1748 -0.0639
vn -0.1374 -0.0639 0.9885
vn -0.3090 0.0000 0.9511
vn -0.3644 -0.1748 0.9147
vn 0.8643 -0.1438 0.4820
vn 0.8090 0.0000 0.5878
vn 0.7574 -0.1748 0.6292
vn -0.0481 -0.9074 -0.4176
vn 0.1382 -0.8944 -0.4253
vn 0.2399 -0.9316 -0.2730
vn 0.8717 -0.4363 0.2229
vn 0.9472 -0.2764 0.1625
vn 0.9214 -0.2020 0.3320
vn 0.5001 0.5846 0.6389
vn 0.4472 0.7236 0.5257
vn 0.2844 0.7338 0.6170
vn -0.6176 0.7087 0.3410
vn -0.6708 0.7236 0.1625
vn -0.7907 0.5826 0.1881
vn -0.9367 -0.2355 -0.2591
vn -0.8618 -0.2764 -0.4253
vn -0.8679 -0.4040 -0.2890
vn -0.4120 -0.9074 -0.0833
vn -0.3618 -0.8944 -0.2629
vn -0.1855 -0.9316 -0.3126
vn 0.4814 -0.4363 -0.7602
vn 0.4472 -0.2764 -0.8507
vn 0.6004 -0.2020 -0.7737
vn 0.7621 0.5846 -0.2782
vn 0.6382 0.7236 -0.2629
vn 0.6747 0.7338 -0.0799
vn 0.1334 0.7087 0.6928
vn -0.0528 0.7236 0.6882
vn -0.0654 0.5826 0.8101
vn -0.5359 -0.2355 0.8108
vn -0.6708 -0.2764 0.6882
vn -0.5430 -0.4040 0.7361
vn 0.9825 0.0639 0.1748
vn 1.0000 0.0000 0.0000
vn 0.9825 0.1181 -0.1438
vn 0.1374 0.0639 0.9885
vn 0.3090 -0.0000 0.9511
vn 0.3644 0.1748 0.9147
vn -0.8976 0.0639 0.4361
vn -0.8090 -0.0000 0.5878
vn -0.7574 0.1748 0.6292
vn -0.6922 0.0639 -0.7189
vn -0.8090 0.0000 -0.5878
vn -0.8324 0.1748 -0.5259
vn 0.4159 0.1438 -0.8980
vn 0.3090 0.0000 -0.9511
vn 0.2429 0.1748 -0.9542
vn 0.9387 0.1515 -0.3096
vn 0.8618 0.2764 -0.4253
vn 0.8182 0.4467 -0.3619
vn 0.5565 -0.7743 0.3013
vn 0.6708 -0.7236 0.1625
vn 0.7514 -0.5992 0.2763
vn -0.5704 -0.5905 0.5709
vn -0.4472 -0.7236 0.5257
vn -0.3368 -0.6664 0.6652
vn -0.8846 0.4488 0.1266
vn -0.9472 0.2764 0.1625
vn -0.8927 0.2954 0.3402
vn 0.0162 0.9431 -0.3320
vn -0.1382 0.8944 -0.4253
vn -0.1482 0.9570 -0.2495
vn -0.7192 -0.5905 -0.3661
vn -0.6382 -0.7236 -0.2629
vn -0.6747 -0.7338 -0.0799
vn -0.3937 0.4488 -0.8022
vn -0.4472 0.2764 -0.8507
vn -0.5994 0.2954 -0.7439
vn 0.4120 0.9074 -0.0833
vn 0.3618 0.8944 -0.2629
vn 0.1915 0.9570 -0.2181
vn 0.5845 0.1515 0.7971
vn 0.6708 0.2764 0.6882
vn 0.5430 0.4040 0.7361
vn -0.1334 -0.7087 0.6928
vn 0.0528 -0.7236 0.6882
vn -0.0306 -0.5992 0.8000
vn 0.7970 -0.5905 -0.1266
vn 0.6708 -0.7236 -0.1625
vn 0.5928 -0.7338 -0.3319
vn 0.7901 0.4488 0.4176
vn 0.8618 0.2764 0.4253
vn 0.9222 0.2954 0.2495
vn -0.2843 0.9074 0.3096
vn -0.1382 0.8944 0.4253
vn -0.0267 0.9570 0.2890
vn -0.9414 0.1515 -0.3013
vn -0.9472 0.2764 -0.1625
vn -0.8720 0.4040 -0.2763
vn -0.2993 -0.7087 -0.6389
vn -0.4472 -0.7236 -0.5257
vn -0.4454 -0.5992 -0.6652
vn 0.4585 -0.7743 -0.4361
vn 0.3618 -0.7236 -0.5878
vn 0.4233 -0.5826 -0.6939
vn 0.3667 -0.5905 0.7189
vn 0.3618 -0.7236 0.5878
vn 0.5286 -0.6664 0.5259
vn -0.1530 0.4488 0.8804
vn -0.1382 0.2764 0.9511
vn 0.0477 0.2954 0.9542
vn -0.3823 0.9074 -0.1748
vn -0.4472 0.8944 0.0000
vn -0.2831 0.9570 0.0639
vn 0.0431 0.2355 -0.9709
vn -0.1382 0.2764 -0.9511
vn -0.0066 0.4040 -0.9147
vn 0.1259 -0.5905 -0.7971
vn 0.0528 -0.7236 -0.6882
vn -0.1325 -0.7338 -0.6663
vn 0.6413 0.4488 -0.6224
vn 0.6708 0.2764 -0.6882
vn 0.5223 0.2954 -0.8000
vn 0.2066 0.9074 0.3661
vn 0.3618 0.8944 0.2629
vn 0.2666 0.9570 0.1147
vn -0.5775 0.1515 0.8022
vn -0.4472 0.2764 0.8507
vn -0.5323 0.4040 0.7439
vn -0.7001 -0.7087 0.0872
vn -0.6382 -0.7236 0.2629
vn -0.7703 -0.5992 0.2181
usemtl Default.006
s 1
f 1/1/1 2/2/2 3/3/3 4/4/1
f 4/4/1 3/3/4 5/5/5 6/6/1
f 6/6/1 5/5/6 7/7/7 8/8/1
f 8/8/1 7/7/8 9/9/9 10/10/1
f 10/10/1 9/9/10 2/2/11 1/1/1
f 4/4/12 11/11/13 12/12/14 13/13/12
f 13/13/15 12/12/16 14/14/17 15/15/15
f 15/15/12 14/14/18 16/16/19 17/17/12
f 17/17/15 16/16/20 18/18/21 6/6/15
f 6/6/12 18/18/22 11/11/23 4/4/12
f 4/4/24 19/19/25 20/20/26 1/1/24
f 13/13/24 21/21/27 19/19/28 4/4/24
f 22/22/24 23/23/29 21/21/30 13/13/24
f 24/24/24 25/25/31 23/23/32 22/22/24
f 1/1/24 20/20/33 25/25/34 24/24/24
f 13/13/35 26/26/36 27/27/37 22/22/35
f 22/22/35 27/27/38 28/28/39 29/29/35
f 29/29/35 28/28/40 30/30/41 31/31/35
f 31/31/35 30/30/42 32/32/43 15/15/35
f 15/15/35 32/32/44 26/26/45 13/13/35
f 31/31/46 33/33/47 34/34/48 29/29/46
f 35/35/46 36/36/49 33/33/50 31/31/46
f 37/37/46 38/38/51 36/36/52 35/35/46
f 39/39/46 40/40/53 38/38/54 37/37/46
f 29/29/46 34/34/55 40/40/56 39/39/46
f 17/17/57 41/41/58 42/42/59 15/15/57
f 43/43/57 44/44/60 41/41/61 17/17/57
f 35/35/57 45/45/62 44/44/63 43/43/57
f 31/31/57 46/46/64 45/45/65 35/35/57
f 15/15/57 42/42/66 46/46/67 31/31/57
f 22/22/68 47/47/69 48/48/70 24/24/68
f 24/24/68 48/48/71 49/49/72 50/50/68
f 50/50/73 49/49/74 51/51/75 39/39/73
f 39/39/68 51/51/76 52/52/77 29/29/68
f 29/29/73 52/52/78 47/47/79 22/22/73
f 24/24/80 53/53/81 54/54/82 1/1/80
f 1/1/80 54/54/83 55/55/84 10/10/80
f 10/10/80 55/55/85 56/56/86 57/57/80
f 57/57/80 56/56/87 58/58/88 50/50/80
f 50/50/80 58/58/89 53/53/90 24/24/80
f 57/57/91 59/59/92 60/60/93 61/61/91
f 50/50/91 62/62/94 59/59/95 57/57/91
f 39/39/91 63/63/96 62/62/97 50/50/91
f 37/37/91 64/64/98 63/63/99 39/39/91
f 61/61/91 60/60/100 64/64/101 37/37/91
f 10/10/102 65/65/103 66/66/104 8/8/102
f 57/57/102 67/67/105 65/65/106 10/10/102
f 61/61/102 68/68/107 67/67/108 57/57/102
f 69/69/102 70/70/109 68/68/110 61/61/102
f 8/8/102 66/66/111 70/70/112 69/69/102
f 8/8/113 71/71/114 72/72/115 6/6/113
f 69/69/113 73/73/116 71/71/117 8/8/113
f 43/43/113 74/74/118 73/73/119 69/69/113
f 17/17/113 75/75/120 74/74/121 43/43/113
f 6/6/113 72/72/122 75/75/123 17/17/113
f 61/61/124 76/76/125 77/77/126 69/69/124
f 37/37/124 78/78/127 76/76/128 61/61/124
f 35/35/124 79/79/129 78/78/130 37/37/124
f 43/43/124 80/80/131 79/79/132 35/35/124
f 69/69/124 77/77/133 80/80/134 43/43/124
f 2/2/135 81/81/136 82/82/136 3/3/137
f 3/3/138 82/82/139 83/83/139 5/5/140
f 5/5/141 83/83/142 84/84/142 7/7/143
f 7/7/144 84/84/145 85/85/145 9/9/146
f 9/9/147 85/85/148 81/81/148 2/2/149
f 11/11/150 82/82/151 86/86/151 12/12/152
f 12/12/153 86/86/154 87/87/154 14/14/155
f 14/14/156 87/87/157 88/88/157 16/16/158
f 16/16/159 88/88/160 83/83/160 18/18/161
f 18/18/162 83/83/163 82/82/163 11/11/164
f 26/26/165 86/86/166 89/89/166 27/27/167
f 27/27/168 89/89/169 90/90/169 28/28/170
f 28/28/171 90/90/172 91/91/172 30/30/173
f 30/30/174 91/91/175 87/87/175 32/32/176
f 32/32/177 87/87/178 86/86/178 26/26/179
f 19/19/180 82/82/181 81/81/181 20/20/182
f 21/21/183 86/86/184 82/82/184 19/19/185
f 23/23/186 89/89/187 86/86/187 21/21/188
f 25/25/189 92/92/190 89/89/190 23/23/191
f 20/20/192 81/81/193 92/92/193 25/25/194
f 47/47/195 89/89/196 92/92/196 48/48/197
f 48/48/198 92/92/199 93/93/199 49/49/200
f 49/49/201 93/93/202 94/94/202 51/51/203
f 51/51/204 94/94/205 90/90/205 52/52/206
f 52/52/207 90/90/208 89/89/208 47/47/209
f 53/53/210 92/92/211 81/81/211 54/54/212
f 54/54/213 81/81/214 85/85/214 55/55/215
f 55/55/216 85/85/217 95/95/217 56/56/218
f 56/56/219 95/95/220 93/93/220 58/58/221
f 58/58/222 93/93/223 92/92/223 53/53/224
f 76/76/225 96/96/226 97/97/226 77/77/227
f 78/78/228 98/98/229 96/96/229 76/76/230
f 79/79/231 99/99/232 98/98/232 78/78/233
f 80/80/234 100/100/235 99/99/235 79/79/236
f 77/77/237 97/97/238 100/100/238 80/80/239
f 59/59/240 95/95/241 96/96/241 60/60/242
f 62/62/243 93/93/244 95/95/244 59/59/245
f 63/63/246 94/94/247 93/93/247 62/62/248
f 64/64/249 98/98/250 94/94/250 63/63/251
f 60/60/252 96/96/253 98/98/253 64/64/254
f 33/33/255 91/91/256 90/90/256 34/34/257
f 36/36/258 99/99/259 91/91/259 33/33/260
f 38/38/261 98/98/262 99/99/262 36/36/263
f 40/40/264 94/94/265 98/98/265 38/38/266
f 34/34/267 90/90/268 94/94/268 40/40/269
f 71/71/270 84/84/271 83/83/271 72/72/272
f 73/73/273 97/97/274 84/84/274 71/71/275
f 74/74/276 100/100/277 97/97/277 73/73/278
f 75/75/279 88/88/280 100/100/280 74/74/281
f 72/72/282 83/83/283 88/88/283 75/75/284
f 65/65/285 85/85/286 84/84/286 66/66/287
f 67/67/288 95/95/289 85/85/289 65/65/290
f 68/68/291 96/96/292 95/95/292 67/67/293
f 70/70/294 97/97/295 96/96/295 68/68/296
f 66/66/297 84/84/298 97/97/298 70/70/299
f 41/41/300 88/88/301 87/87/301 42/42/302
f 44/44/303 100/100/304 88/88/304 41/41/305
f 45/45/306 99/99/307 100/100/307 44/44/308
f 46/46/309 91/91/310 99/99/310 45/45/311
f 42/42/312 87/87/313 91/91/313 46/46/314
