# Blender v3.2.0 OBJ File: ''
# www.blender.org
mtllib Polyhedron_1.mtl
o polyhedrons_ts
v 0.316094 0.267076 0.321765
v 0.316094 0.369962 0.424651
v 0.316094 0.575734 0.424651
v 0.316094 0.678620 0.321765
v 0.316094 0.575734 0.630423
v 0.316094 0.678620 0.733309
v 0.316094 0.369962 0.630423
v 0.316094 0.267076 0.733308
v 0.418980 0.369962 0.733308
v 0.418980 0.575734 0.733309
v 0.624752 0.575734 0.733309
v 0.727638 0.678620 0.733309
v 0.624752 0.369962 0.733308
v 0.727638 0.267076 0.733308
v 0.727638 0.678620 0.321765
v 0.727638 0.575734 0.424651
v 0.727638 0.369962 0.424651
v 0.727638 0.267076 0.321765
v 0.727638 0.369962 0.630423
v 0.727638 0.575734 0.630423
v 0.418980 0.369962 0.321765
v 0.624752 0.369962 0.321765
v 0.418980 0.575734 0.321765
v 0.624752 0.575734 0.321765
v 0.418980 0.678620 0.424651
v 0.624752 0.678620 0.424651
v 0.624752 0.678620 0.630423
v 0.418980 0.678620 0.630423
v 0.624752 0.267076 0.424651
v 0.418980 0.267076 0.424651
v 0.418980 0.267076 0.630423
v 0.624752 0.267076 0.630423
v 0.418980 0.369962 0.424651
v 0.624752 0.369962 0.424651
v 0.418980 0.575734 0.424651
v 0.624752 0.575734 0.424651
v 0.418980 0.369962 0.630423
v 0.624752 0.369962 0.630423
v 0.624752 0.575734 0.630423
v 0.418980 0.575734 0.630423
vt 0.875000 0.304087
vt 0.926208 0.366140
vt 0.926208 0.633860
vt 0.875000 0.695913
vt 0.073792 0.633860
vt 0.125000 0.695913
vt 0.073792 0.366140
vt 0.125000 0.304087
vt 0.176208 0.366140
vt 0.176208 0.633860
vt 0.323792 0.633860
vt 0.375000 0.695913
vt 0.323792 0.366140
vt 0.375000 0.304087
vt 0.625000 0.695913
vt 0.573792 0.633860
vt 0.573792 0.366140
vt 0.625000 0.304087
vt 0.426208 0.366140
vt 0.426208 0.633860
vt 0.823792 0.366140
vt 0.676208 0.366140
vt 0.823792 0.633860
vt 0.676208 0.633860
vt 0.875000 0.804087
vt 0.625000 0.804087
vt 0.375000 0.804087
vt 0.125000 0.804087
vt 0.625000 0.195913
vt 0.875000 0.195913
vt 0.125000 0.195913
vt 0.375000 0.195913
vt 0.875000 0.304087
vt 0.625000 0.304087
vt 0.875000 0.695913
vt 0.625000 0.695913
vt 0.125000 0.304087
vt 0.375000 0.304087
vt 0.375000 0.695913
vt 0.125000 0.695913
vn -1.0000 0.0000 0.0000
vn -0.9691 -0.0833 -0.2324
vn -0.9691 -0.0646 -0.2382
vn -0.9691 0.2141 0.1228
vn -0.9691 0.2382 -0.0646
vn -0.9691 -0.1228 0.2141
vn -0.9691 0.0646 0.2382
vn -0.9691 -0.2141 -0.1228
vn -0.9691 -0.1054 0.2232
vn 0.0000 -0.0000 1.0000
vn -0.2324 -0.0833 0.9691
vn -0.2382 -0.0646 0.9691
vn 0.1228 0.2141 0.9691
vn -0.0646 0.2382 0.9691
vn 0.2141 -0.1228 0.9691
vn 0.2382 0.0646 0.9691
vn -0.1228 -0.2141 0.9691
vn 0.2232 -0.1054 0.9691
vn 1.0000 0.0000 0.0000
vn 0.9691 0.0833 -0.2324
vn 0.9691 0.0646 -0.2382
vn 0.9691 -0.2141 0.1228
vn 0.9691 -0.2382 -0.0646
vn 0.9691 0.1228 0.2141
vn 0.9691 -0.0646 0.2382
vn 0.9691 0.2141 -0.1228
vn 0.9691 0.1054 0.2232
vn 0.0000 0.0000 -1.0000
vn -0.0833 -0.2324 -0.9691
vn -0.0646 -0.2382 -0.9691
vn -0.2324 0.0833 -0.9691
vn -0.1054 0.2232 -0.9691
vn 0.0833 0.2324 -0.9691
vn 0.2232 0.1054 -0.9691
vn 0.2141 0.1228 -0.9691
vn 0.1054 -0.2232 -0.9691
vn 0.0000 1.0000 0.0000
vn -0.0833 0.9691 -0.2324
vn -0.0646 0.9691 -0.2382
vn 0.2141 0.9691 0.1228
vn 0.2382 0.9691 -0.0646
vn -0.1228 0.9691 0.2141
vn 0.0646 0.9691 0.2383
vn -0.2141 0.9691 -0.1228
vn -0.1054 0.9691 0.2232
vn 0.0000 -1.0000 -0.0000
vn 0.0833 -0.9691 -0.2324
vn 0.0646 -0.9691 -0.2382
vn -0.2141 -0.9691 0.1228
vn -0.2382 -0.9691 -0.0646
vn 0.1228 -0.9691 0.2141
vn -0.0646 -0.9691 0.2382
vn 0.2141 -0.9691 -0.1228
vn 0.1054 -0.9691 0.2232
vn 0.2362 0.9691 0.0716
vn -0.1888 0.9691 0.1590
vn 0.9691 -0.2362 0.0716
vn 0.9691 0.0716 0.2362
vn -0.2362 -0.9691 0.0716
vn 0.0716 -0.9691 0.2362
vn -0.9691 0.1590 0.1888
vn -0.9691 -0.0716 0.2362
vn -0.2362 0.0716 0.9691
vn 0.1888 0.1590 0.9691
vn 0.9691 0.1888 0.1590
vn 0.9691 0.1590 -0.1888
vn 0.1590 0.1888 -0.9691
vn -0.1888 0.1590 -0.9691
vn -0.9691 0.1888 -0.1590
vn -0.9691 0.2362 0.0716
vn -0.0716 -0.2362 0.9691
vn -0.1590 0.1888 0.9691
vn -0.1590 0.9691 -0.1888
vn -0.1590 -0.1888 -0.9691
vn -0.1888 -0.9691 -0.1590
vn 0.0716 0.2362 0.9691
vn 0.1590 -0.1888 0.9691
vn 0.1888 -0.9691 0.1590
vn 0.1590 -0.9691 -0.1888
vn 0.1888 -0.1590 -0.9691
vn 0.1888 0.9691 -0.1590
vn 0.9691 0.2362 -0.0716
vn 0.9691 -0.1888 -0.1590
vn -0.9691 -0.1590 -0.1888
vn 0.0716 0.9691 -0.2362
vn 0.2362 -0.0716 0.9691
vn -0.1888 -0.1590 0.9691
vn -0.9691 -0.1888 0.1590
usemtl Default
s off
f 1/1/1 2/2/2 3/3/3 4/4/1
f 4/4/1 3/3/4 5/5/5 6/6/1
f 6/6/1 5/5/6 7/7/7 8/8/1
f 8/8/1 7/7/8 2/2/9 1/1/1
f 8/8/10 9/9/11 10/10/12 6/6/10
f 6/6/10 10/10/13 11/11/14 12/12/10
f 12/12/10 11/11/15 13/13/16 14/14/10
f 14/14/10 13/13/17 9/9/18 8/8/10
f 15/15/19 16/16/20 17/17/21 18/18/19
f 18/18/19 17/17/22 19/19/23 14/14/19
f 14/14/19 19/19/24 20/20/25 12/12/19
f 12/12/19 20/20/26 16/16/27 15/15/19
f 1/1/28 21/21/29 22/22/30 18/18/28
f 4/4/28 23/23/31 21/21/32 1/1/28
f 15/15/28 24/24/33 23/23/34 4/4/28
f 18/18/28 22/22/35 24/24/36 15/15/28
f 4/4/37 25/25/38 26/26/39 15/15/37
f 15/15/37 26/26/40 27/27/41 12/12/37
f 12/12/37 27/27/42 28/28/43 6/6/37
f 6/6/37 28/28/44 25/25/45 4/4/37
f 18/18/46 29/29/47 30/30/48 1/1/46
f 1/1/46 30/30/49 31/31/50 8/8/46
f 8/8/46 31/31/51 32/32/52 14/14/46
f 14/14/46 32/32/53 29/29/54 18/18/46
f 21/21/55 33/33/37 34/34/37 22/22/56
f 23/23/57 35/35/19 33/33/19 21/21/58
f 24/24/59 36/36/46 35/35/46 23/23/60
f 22/22/61 34/34/1 36/36/1 24/24/62
f 29/29/63 34/34/10 33/33/10 30/30/64
f 30/30/65 33/33/19 37/37/19 31/31/66
f 31/31/67 37/37/28 38/38/28 32/32/68
f 32/32/69 38/38/1 34/34/1 29/29/70
f 16/16/71 36/36/10 34/34/10 17/17/72
f 17/17/56 34/34/37 38/38/37 19/19/73
f 19/19/68 38/38/28 39/39/28 20/20/74
f 20/20/75 39/39/46 36/36/46 16/16/59
f 2/2/76 33/33/10 35/35/10 3/3/77
f 3/3/78 35/35/46 40/40/46 5/5/79
f 5/5/80 40/40/28 37/37/28 7/7/67
f 7/7/81 37/37/37 33/33/37 2/2/55
f 9/9/82 37/37/19 40/40/19 10/10/83
f 10/10/79 40/40/46 39/39/46 11/11/75
f 11/11/84 39/39/1 38/38/1 13/13/69
f 13/13/73 38/38/37 37/37/37 9/9/85
f 25/25/86 35/35/10 36/36/10 26/26/87
f 26/26/88 36/36/1 39/39/1 27/27/84
f 27/27/74 39/39/28 40/40/28 28/28/80
f 28/28/83 40/40/19 35/35/19 25/25/57
