# Blender v3.2.0 OBJ File: ''
# www.blender.org
mtllib Polyhedron_3.mtl
o polyhedrons_ts.002_polyhedrons_ts.005
v 0.318983 0.286514 0.265667
v 0.393644 0.286513 0.394983
v 0.393644 0.286513 0.653616
v 0.318983 0.286513 0.782932
v 0.766948 0.286513 0.524300
v 0.617626 0.286513 0.524300
v 0.343870 0.356904 0.653616
v 0.343870 0.356904 0.394983
v 0.418531 0.568077 0.524300
v 0.468305 0.708859 0.524300
v 0.418531 0.356904 0.696721
v 0.493191 0.568077 0.567405
v 0.642513 0.356904 0.567405
v 0.642513 0.356904 0.481194
v 0.493191 0.568077 0.481194
v 0.418531 0.356904 0.351878
v 0.393644 0.339307 0.394983
v 0.617626 0.339307 0.524300
v 0.468305 0.550479 0.524300
v 0.393644 0.339307 0.653616
vt 0.863593 0.323981
vt 0.886407 0.239382
vt 0.113593 0.239382
vt 0.136407 0.323981
vt 0.500000 0.259367
vt 0.500000 0.108174
vt 0.091679 0.329623
vt 0.908321 0.329623
vt 0.000000 0.663868
vt 0.000000 0.891827
vt 0.150507 0.313845
vt 0.113593 0.760618
vt 0.434963 0.208978
vt 0.565037 0.208978
vt 0.886407 0.760618
vt 0.849493 0.313845
vt 0.886407 0.284877
vt 0.500000 0.140219
vt 0.000000 0.695913
vt 0.113593 0.284877
vn 0.0020 -0.9999 0.0153
vn -0.2509 -0.9422 -0.2220
vn -0.2444 -0.9690 -0.0366
vn 0.0061 -0.9998 -0.0167
vn -0.0162 -0.9998 0.0076
vn 0.0136 -0.9998 -0.0114
vn 0.1934 -0.9690 0.1539
vn 0.1528 -0.8930 0.4233
vn -0.0179 -0.9998 -0.0016
vn 0.0793 -0.8930 -0.4430
vn 0.3283 -0.9422 0.0668
vn 0.0094 -0.9999 0.0122
vn -0.9416 0.3362 -0.0175
vn -0.9531 -0.0166 0.3023
vn -0.9950 0.0925 0.0366
vn -0.9407 0.3389 0.0143
vn -0.8491 0.5053 -0.1539
vn -0.8491 0.4250 -0.3137
vn -0.9428 0.3333 0.0000
vn -0.9386 0.3448 0.0094
vn -0.8700 0.3659 0.3305
vn -0.6953 0.7124 -0.0951
vn -0.9389 0.3440 -0.0136
vn 0.4789 0.3461 0.8067
vn 0.0559 0.2080 0.9765
vn 0.1529 0.4250 0.8922
vn 0.4714 0.3333 0.8165
vn 0.7212 0.3659 0.5882
vn 0.5986 0.4681 0.6500
vn 0.4600 0.3471 0.8173
vn 0.4167 0.1061 0.9028
vn 0.8150 0.1680 0.5546
vn 0.4848 0.3390 0.8063
vn 0.4560 0.3404 0.8223
vn 0.4714 0.3333 -0.8165
vn 0.4569 0.3430 -0.8207
vn 0.6748 0.2803 -0.6828
vn 0.6963 0.4250 -0.5785
vn 0.4843 0.3352 -0.8082
vn 0.2147 -0.0166 -0.9765
vn 0.2686 0.2455 -0.9314
vn 0.4556 0.3348 -0.8248
vn 0.4804 0.3422 -0.8076
vn 0.1488 0.3659 -0.9187
vn 0.4301 0.7124 -0.5546
vn 0.1948 0.8142 0.5470
vn -0.1667 0.9428 0.2887
vn -0.3189 0.8329 0.4524
vn 0.6029 -0.7095 0.3650
vn 0.8333 -0.4714 0.2887
vn 0.5598 -0.5003 0.6605
vn -0.8093 -0.2758 -0.5186
vn -0.6667 -0.4714 -0.5773
vn -0.5886 -0.7228 -0.3621
vn 0.3763 0.8142 -0.4422
vn 0.3333 0.9428 0.0000
vn 0.4762 0.8594 0.1862
vn 0.0146 -0.7095 -0.7046
vn -0.1667 -0.4714 -0.8660
vn 0.2922 -0.5003 -0.8151
vn 0.0610 -0.3862 0.9204
vn -0.1667 -0.4714 0.8660
vn -0.0193 -0.7228 0.6908
vn 0.8325 -0.0877 -0.5470
vn 0.8333 -0.4714 -0.2887
vn 0.6079 -0.7228 -0.3287
vn -0.6175 -0.7095 0.3396
vn -0.6667 -0.4714 0.5773
vn -0.8301 -0.3589 0.4267
vn -0.3900 0.8515 -0.3505
vn -0.1667 0.9428 -0.2887
vn -0.2851 0.6945 -0.6605
vn -0.7078 0.3339 0.6226
vn -0.5000 -0.0000 0.8660
vn -0.4152 0.3288 0.8482
vn 0.9422 0.0645 0.3288
vn 1.0000 0.0000 0.0000
vn 0.9690 0.1625 -0.1862
vn -0.3437 0.1862 -0.9204
vn -0.5000 0.0000 -0.8660
vn -0.7357 0.3017 -0.6064
usemtl Default.005
s off
f 1/1/1 2/2/2 3/3/3 4/4/4
f 5/5/5 4/4/6 3/3/7 6/6/8
f 5/5/9 6/6/10 2/2/11 1/1/12
f 4/4/13 7/7/14 8/8/15 1/1/16
f 8/8/17 9/9/18 10/10/19 1/1/20
f 9/9/21 7/7/22 4/4/23 10/10/19
f 4/4/24 11/11/25 12/12/26 10/10/27
f 10/10/27 12/12/28 13/13/29 5/5/30
f 13/13/31 11/11/32 4/4/33 5/5/34
f 10/10/35 5/5/36 14/14/37 15/15/38
f 1/1/39 16/16/40 14/14/41 5/5/42
f 1/1/43 10/10/35 15/15/44 16/16/45
f 16/16/46 17/17/47 18/18/47 14/14/48
f 15/15/49 19/19/50 17/17/50 16/16/51
f 14/14/52 18/18/53 19/19/53 15/15/54
f 7/7/55 20/20/56 17/17/56 8/8/57
f 9/9/58 19/19/59 20/20/59 7/7/60
f 8/8/61 17/17/62 19/19/62 9/9/63
f 11/11/64 20/20/65 19/19/65 12/12/66
f 12/12/67 19/19/68 18/18/68 13/13/69
f 13/13/70 18/18/71 20/20/71 11/11/72
f 6/6/73 18/18/74 17/17/74 2/2/75
f 2/2/76 17/17/77 20/20/77 3/3/78
f 3/3/79 20/20/80 18/18/80 6/6/81
